<svg width="64.617" height="61.859" version="1.1" viewBox="0 0 64.617 61.859" xmlns="http://www.w3.org/2000/svg">
 <path d="m15.832 8.0649c-1.8147-0.016111-2.945 1.0719-2.9525 2.9095l0.07562 29.574c-0.02337 1.8433 1.4412 3.568 3.8911 3.6404l32.969 0.01269c1.7457-0.02278 2.9164-1.1455 2.9525-2.9095v-25.851c0.01039-2.9115-0.01373-3.0124-2.765-3.1134l-18.593-0.06683-6.5323-4.1963zm16.854 8.2178c0.92068 0 1.8223 0.05895 2.6985 0.17135 0.58414 0.07446 1.0289 0.42506 1.1558 0.86701l0.79268 2.7792c0.94601 0.31785 1.9431 0.73726 2.794 1.2406l3.5372-0.8653c0.55874-0.13727 1.1737-0.01563 1.5547 0.33241 0.5143 0.47944 0.98392 0.98441 1.403 1.5198l0.29832 0.3941c0.38095 0.53056 0.71787 1.0914 0.99724 1.6706 0.20952 0.4186 0.03284 0.89109-0.3989 1.1977l-2.7497 1.9174c0.06984 0.404 0.1074 0.81686 0.1074 1.2354 0 0.4186-0.03757 0.83318-0.1074 1.2371l2.7497 1.9174c0.43175 0.30665 0.60842 0.77909 0.3989 1.1977-0.27937 0.57923-0.61628 1.1384-0.99724 1.6689l-0.29832 0.3941c-0.41905 0.53542-0.88869 1.0414-1.403 1.5233-0.38095 0.34559-0.99593 0.4687-1.5547 0.33241l-3.5372-0.86701c-0.85078 0.50135-1.8479 0.91932-2.794 1.2405l-0.79268 2.7792c-0.12698 0.43807-0.57168 0.75023-1.1558 0.86701-0.8762 0.11195-1.7787 0.16963-2.7565 0.16963-0.86349 0-1.7644-0.05768-2.6406-0.16963-0.58414-0.11682-1.0289-0.42898-1.1558-0.86701l-0.79438-2.7792c-1.0032-0.32125-1.9414-0.73921-2.7923-1.2405l-3.5338 0.86701c-0.56128 0.13629-1.1805 0.01317-1.5564-0.33241-0.51493-0.48188-0.98562-0.98784-1.4047-1.5233l-0.29661-0.3941c-0.3854-0.53056-0.72106-1.0897-1.0024-1.6689-0.20571-0.4186-0.03157-0.89108 0.40401-1.1977l2.7462-1.9174c-0.06983-0.404-0.10569-0.81858-0.10569-1.2371 0-0.41861 0.03584-0.83146 0.10569-1.2354l-2.7462-1.9174c-0.43556-0.30665-0.60973-0.77427-0.40401-1.1977 0.28128-0.57923 0.61756-1.1401 1.0024-1.6706l0.29661-0.3941c0.41969-0.53542 0.88976-1.0404 1.4047-1.5198 0.37587-0.34802 0.99512-0.46968 1.5564-0.33241l3.5338 0.8653c0.85078-0.5033 1.7891-0.92268 2.7923-1.2406l0.79438-2.7792c0.12698-0.44197 0.57168-0.79255 1.1558-0.86701 0.8762-0.11239 1.7779-0.17135 2.6985-0.17135zm0 8.5228c-2.8063 0-5.08 1.7871-5.08 3.8947 0 2.1952 2.2735 3.9375 5.08 3.9375 2.8063 0 5.08-1.7423 5.08-3.9375 0-2.1076-2.2735-3.8947-5.08-3.8947z" fill="#fff" stroke-width=".87504"/>
 <text transform="scale(1.0603 .94317)" x="11.490558" y="55.921909" fill="#ffffff" font-family="sans-serif" font-size="7.7514px" stroke-width=".7267" style="line-height:1.25" xml:space="preserve"><tspan x="11.490558" y="55.921909" fill="#ffffff" stroke-width=".7267">Folderconf</tspan></text>
</svg>
