<svg width="64.617" height="61.859" fill="#ffffff" version="1.1" viewBox="0 0 64.617 61.859" xmlns="http://www.w3.org/2000/svg">
 <text transform="scale(1.1452 .87322)" x="16.142118" y="60.92886" fill="#ffffff" font-family="sans-serif" font-size="9.6884px" stroke-width=".24221" style="line-height:1.25" xml:space="preserve"><tspan x="16.142118" y="60.92886" fill="#ffffff" stroke-width=".24221">Help</tspan></text>
 <g transform="matrix(1.2549 0 0 .79687 -1.5046 .11574)" stroke-width=".53957" aria-label="?">
  <path d="m31.11 28.725q0 1.0328-0.36885 1.8443-0.36885 0.80093-0.96955 1.4227-0.59016 0.6007-1.3595 1.1276t-1.6335 1.0222v2.3712h-1.8864v-3.2143q0.68501-0.38993 1.4754-0.85362 0.80093-0.4637 1.3068-0.93793 0.61124-0.54801 0.94847-1.1276 0.33724-0.59016 0.33724-1.4965 0-1.1909-0.81147-1.7705-0.80093-0.59016-2.0761-0.59016-1.1382 0-2.1604 0.35831-1.0117 0.35831-1.6019 0.72716h-0.10538v-2.1499q0.7377-0.28454 1.8653-0.50585 1.1382-0.23185 2.1499-0.23185 2.2658 0 3.5726 1.1066 1.3173 1.096 1.3173 2.8981zm-4.1627 12.003h-2.1499v-2.2236h2.1499z"/>
 </g>
 <path d="m49.71 26.331a18.402 15.856 0 0 1-18.402 15.856 18.402 15.856 0 0 1-18.402-15.856 18.402 15.856 0 0 1 18.402-15.856 18.402 15.856 0 0 1 18.402 15.856z" fill="none" stroke="#fff" stroke-linecap="round" stroke-linejoin="round" stroke-width="2.349"/>
</svg>
