<svg width="64.617" height="61.859" version="1.1" viewBox="0 0 64.617 61.859" xmlns="http://www.w3.org/2000/svg">
 <path d="m51.496 21.765c0.2671 0.54757 0.04046 1.1652-0.50994 1.5663l-3.5048 2.5086c0.08904 0.52847 0.1376 1.0697 0.1376 1.6172 0 0.54757-0.04859 1.0888-0.1376 1.6172l3.5048 2.5086c0.55041 0.40113 0.77704 1.0187 0.50994 1.5663-0.35615 0.75769-0.78514 1.4899-1.2708 2.1839l-0.38043 0.51574c-0.53422 0.70038-1.1332 1.3626-1.7888 1.9929-0.48565 0.45207-1.2708 0.61124-1.9831 0.43296l-4.5085-1.1334c-1.0846 0.65582-2.3554 1.2034-3.5615 1.6236l-1.0118 3.6356c-0.16188 0.57304-0.72848 0.98054-1.4731 1.1333-1.117 0.14644-2.2664 0.22285-3.5129 0.22285-1.1008 0-2.2502-0.07641-3.3672-0.22285-0.74467-0.15281-1.3113-0.56031-1.4731-1.1333l-1.0118-3.6356c-1.2789-0.42023-2.4768-0.9678-3.5615-1.6236l-4.5052 1.1334c-0.71553 0.17828-1.5047 0.01909-1.9839-0.43296-0.65645-0.63035-1.2554-1.2925-1.7896-1.9929l-0.37881-0.51574c-0.49132-0.69402-0.9187-1.4262-1.2773-2.1839-0.26225-0.54757-0.0413-1.1652 0.51398-1.5663l3.5016-2.5086c-0.08903-0.52847-0.13517-1.0697-0.13517-1.6172 0-0.54758 0.04612-1.0888 0.13517-1.6172l-3.5016-2.5086c-0.55526-0.40113-0.77624-1.0124-0.51398-1.5663 0.35858-0.75769 0.78676-1.4899 1.2773-2.1839l0.378-0.51574c0.53503-0.70038 1.134-1.3626 1.7904-1.9897 0.47917-0.45525 1.2684-0.61316 1.9839-0.4336l4.5052 1.1308c1.0846-0.65836 2.2826-1.2059 3.5615-1.6217l1.0118-3.6356c0.16188-0.57814 0.72848-1.0372 1.4731-1.1346 1.117-0.14702 2.2664-0.22349 3.44-0.22349 1.1737 0 2.323 0.07647 3.44 0.22349 0.74467 0.09741 1.3113 0.55648 1.4731 1.1346l1.0118 3.6356c1.206 0.41578 2.4768 0.96335 3.5615 1.6217l4.5085-1.1308c0.71229-0.17956 1.4974-0.02167 1.9831 0.4336 0.65564 0.62716 1.2546 1.2893 1.7888 1.9897l0.38043 0.51574c0.48565 0.69402 0.91465 1.4262 1.2708 2.1839zm-19.418 10.786c3.5776 0 6.4754-2.2794 6.4754-5.151 0-2.757-2.8977-5.0937-6.4754-5.0937-3.5776 0-6.4754 2.3367-6.4754 5.0937 0 2.8716 2.8977 5.151 6.4754 5.151z" fill="#fff" stroke-width=".071789"/>
 <text transform="scale(1.1452 .87322)" x="8.4609756" y="62.917038" fill="#ffffff" font-family="sans-serif" font-size="9.6884px" stroke-width=".24221" style="line-height:1.25" xml:space="preserve"><tspan x="8.4609756" y="62.917038" fill="#ffffff" stroke-width=".24221">Settings</tspan></text>
</svg>
